<?xml version="1.0" encoding="iso-8859-1"?>
<!-- Generator: Adobe Illustrator 19.1.0, SVG Export Plug-In . SVG Version: 6.00 Build 0)  -->
<svg version="1.1" id="Capa_1" xmlns="http://www.w3.org/2000/svg" xmlns:xlink="http://www.w3.org/1999/xlink" x="0px" y="0px"
	 viewBox="0 0 326.439 326.439" style="enable-background:new 0 0 326.439 326.439;" xml:space="preserve">
<g>
	<g>
		<g>
			<path d="M202.642,227.189l-10.606-10.607L297.688,110.93c8.868-8.867,13.751-20.658,13.751-33.198
				c0-12.541-4.884-24.331-13.751-33.198l-0.78-0.78c-18.304-18.302-48.09-18.306-66.396,0.002L75.325,198.942l-10.606-10.607
				L219.906,33.148c24.155-24.152,63.457-24.151,87.61,0l0.78,0.78c11.699,11.699,18.143,27.256,18.143,43.804
				c0,16.547-6.444,32.104-18.145,43.806L202.642,227.189z"/>
		</g>
		<g>
			<path d="M84.055,311.405c-22.164,0-43.001-8.632-58.673-24.305l-1.078-1.077C8.631,270.351,0,249.514,0,227.35
				s8.631-43.001,24.303-58.674L170.755,22.224l10.606,10.607L34.91,179.283c-26.504,26.504-26.504,69.629,0,96.133l1.078,1.078
				c12.839,12.84,29.91,19.911,48.067,19.911c18.158,0,35.228-7.071,48.067-19.91l146.452-146.453l10.606,10.607L142.729,287.102
				C127.056,302.773,106.219,311.405,84.055,311.405z"/>
		</g>
	</g>
	<g>
	</g>
	<g>
	</g>
	<g>
	</g>
	<g>
	</g>
	<g>
	</g>
	<g>
	</g>
	<g>
	</g>
	<g>
	</g>
	<g>
	</g>
	<g>
	</g>
	<g>
	</g>
	<g>
	</g>
	<g>
	</g>
	<g>
	</g>
	<g>
	</g>
</g>
<g>
</g>
<g>
</g>
<g>
</g>
<g>
</g>
<g>
</g>
<g>
</g>
<g>
</g>
<g>
</g>
<g>
</g>
<g>
</g>
<g>
</g>
<g>
</g>
<g>
</g>
<g>
</g>
<g>
</g>
</svg>
