<?xml version="1.0" encoding="iso-8859-1"?>
<!-- Generator: Adobe Illustrator 19.1.0, SVG Export Plug-In . SVG Version: 6.00 Build 0)  -->
<svg version="1.1" id="Capa_1" xmlns="http://www.w3.org/2000/svg" xmlns:xlink="http://www.w3.org/1999/xlink" x="0px" y="0px"
	 viewBox="0 0 330.943 330.943" style="enable-background:new 0 0 330.943 330.943;" xml:space="preserve">
<g>
	<g>
		<path d="M254.639,156.302h-15c0,40.636-33.062,73.696-73.701,73.696h-0.933c-40.639,0-73.701-33.06-73.701-73.696h-15
			c0,46.54,36.033,84.821,81.667,88.418v86.223h15V244.72C218.606,241.123,254.639,202.842,254.639,156.302z"/>
		<path d="M165.005,210h0.934c29.61,0,53.7-24.09,53.7-53.7V53.7c0-29.61-24.089-53.7-53.7-53.7h-0.934
			c-29.61,0-53.7,24.09-53.7,53.7v102.6C111.305,185.91,135.395,210,165.005,210z M126.305,53.7c0-21.339,17.361-38.7,38.7-38.7
			h0.934c21.339,0,38.7,17.361,38.7,38.7v102.6c0,21.339-17.361,38.7-38.7,38.7h-0.934c-21.339,0-38.7-17.361-38.7-38.7
			C126.305,156.3,126.305,53.7,126.305,53.7z"/>
	</g>
	<g>
	</g>
	<g>
	</g>
	<g>
	</g>
	<g>
	</g>
	<g>
	</g>
	<g>
	</g>
	<g>
	</g>
	<g>
	</g>
	<g>
	</g>
	<g>
	</g>
	<g>
	</g>
	<g>
	</g>
	<g>
	</g>
	<g>
	</g>
	<g>
	</g>
</g>
<g>
</g>
<g>
</g>
<g>
</g>
<g>
</g>
<g>
</g>
<g>
</g>
<g>
</g>
<g>
</g>
<g>
</g>
<g>
</g>
<g>
</g>
<g>
</g>
<g>
</g>
<g>
</g>
<g>
</g>
</svg>
