<?xml version="1.0" encoding="iso-8859-1"?>
<!-- Generator: Adobe Illustrator 19.1.0, SVG Export Plug-In . SVG Version: 6.00 Build 0)  -->
<svg version="1.1" id="Capa_1" xmlns="http://www.w3.org/2000/svg" xmlns:xlink="http://www.w3.org/1999/xlink" x="0px" y="0px"
	 viewBox="0 0 353.6 353.6" style="enable-background:new 0 0 353.6 353.6;" xml:space="preserve">
<g>
	<path d="M176.8,110.1c-36.8,0-66.8,30-66.8,66.8s30,66.7,66.8,66.7s66.8-30,66.8-66.8S213.6,110.1,176.8,110.1z M176.8,228.6
		c-28.6,0-51.8-23.2-51.8-51.8s23.2-51.8,51.8-51.8c28.5,0,51.8,23.2,51.8,51.8S205.3,228.6,176.8,228.6z M184.3,65h-15V0h15V65z
		 M169.3,288.6h15v65h-15V288.6z M261.1,103.1l-10.6-10.6l46-46l10.6,10.6L261.1,103.1z M92.4,250.6l10.6,10.6l-46,46l-10.6-10.6
		L92.4,250.6z M353.6,169.3v15h-65v-15H353.6z M65,184.3H0v-15h65V184.3z M261.1,250.6l46,46l-10.6,10.6l-46-46L261.1,250.6z
		 M57.1,46.5l46,46l-10.6,10.6l-46-46L57.1,46.5z"/>
</g>
<g>
</g>
<g>
</g>
<g>
</g>
<g>
</g>
<g>
</g>
<g>
</g>
<g>
</g>
<g>
</g>
<g>
</g>
<g>
</g>
<g>
</g>
<g>
</g>
<g>
</g>
<g>
</g>
<g>
</g>
</svg>
