<?xml version="1.0" encoding="iso-8859-1"?>
<!-- Generator: Adobe Illustrator 19.1.0, SVG Export Plug-In . SVG Version: 6.00 Build 0)  -->
<svg version="1.1" id="Capa_1" xmlns="http://www.w3.org/2000/svg" xmlns:xlink="http://www.w3.org/1999/xlink" x="0px" y="0px"
	 viewBox="0 0 338.453 338.453" style="enable-background:new 0 0 338.453 338.453;" xml:space="preserve">
<g>
	<g>
		<path d="M169.227,60.119c-76.737,0-139.167,62.43-139.167,139.167s62.43,139.167,139.167,139.167s139.167-62.43,139.167-139.167
			S245.964,60.119,169.227,60.119z M169.227,323.452c-68.466,0-124.167-55.701-124.167-124.167S100.761,75.119,169.227,75.119
			s124.167,55.701,124.167,124.167S237.693,323.452,169.227,323.452z"/>
		<rect x="161.727" y="104.286" width="15" height="95"/>
		<path d="M247.56,0H90.894v51.776h156.666L247.56,0L247.56,0z M232.56,36.776H105.894V15h126.666L232.56,36.776L232.56,36.776z"/>
	</g>
	<g>
	</g>
	<g>
	</g>
	<g>
	</g>
	<g>
	</g>
	<g>
	</g>
	<g>
	</g>
	<g>
	</g>
	<g>
	</g>
	<g>
	</g>
	<g>
	</g>
	<g>
	</g>
	<g>
	</g>
	<g>
	</g>
	<g>
	</g>
	<g>
	</g>
</g>
<g>
</g>
<g>
</g>
<g>
</g>
<g>
</g>
<g>
</g>
<g>
</g>
<g>
</g>
<g>
</g>
<g>
</g>
<g>
</g>
<g>
</g>
<g>
</g>
<g>
</g>
<g>
</g>
<g>
</g>
</svg>
