<?xml version="1.0" encoding="iso-8859-1"?>
<!-- Generator: Adobe Illustrator 19.1.0, SVG Export Plug-In . SVG Version: 6.00 Build 0)  -->
<svg version="1.1" id="Capa_1" xmlns="http://www.w3.org/2000/svg" xmlns:xlink="http://www.w3.org/1999/xlink" x="0px" y="0px"
	 viewBox="0 0 368.554 368.554" style="enable-background:new 0 0 368.554 368.554;" xml:space="preserve">
<g>
	<g>
		<path d="M184.277,0.001C82.666,0.001,0,82.668,0,184.277s82.666,184.276,184.277,184.276s184.277-82.666,184.277-184.276
			S285.888,0.001,184.277,0.001z M184.277,353.554C90.938,353.554,15,277.617,15,184.277S90.938,15.001,184.277,15.001
			s169.277,75.938,169.277,169.276S277.616,353.554,184.277,353.554z"/>
		<path d="M90.072,278.482l129.384-59.024l59.025-129.384l-129.384,59.024L90.072,278.482z M157.097,167.704l43.753,43.754
			l-80.459,36.705L157.097,167.704z M211.457,200.851l-43.753-43.754l80.459-36.705L211.457,200.851z"/>
	</g>
	<g>
	</g>
	<g>
	</g>
	<g>
	</g>
	<g>
	</g>
	<g>
	</g>
	<g>
	</g>
	<g>
	</g>
	<g>
	</g>
	<g>
	</g>
	<g>
	</g>
	<g>
	</g>
	<g>
	</g>
	<g>
	</g>
	<g>
	</g>
	<g>
	</g>
</g>
<g>
</g>
<g>
</g>
<g>
</g>
<g>
</g>
<g>
</g>
<g>
</g>
<g>
</g>
<g>
</g>
<g>
</g>
<g>
</g>
<g>
</g>
<g>
</g>
<g>
</g>
<g>
</g>
<g>
</g>
</svg>
