<?xml version="1.0" encoding="iso-8859-1"?>
<!-- Generator: Adobe Illustrator 19.1.0, SVG Export Plug-In . SVG Version: 6.00 Build 0)  -->
<svg version="1.1" id="Capa_1" xmlns="http://www.w3.org/2000/svg" xmlns:xlink="http://www.w3.org/1999/xlink" x="0px" y="0px"
	 viewBox="0 0 452.234 452.234" style="enable-background:new 0 0 452.234 452.234;" xml:space="preserve">
<g>
	<g>
		<path d="M452.234,263.255l-67.835-55.269l49.517-72.141l-86.947-9.821l2.653-87.458l-78.453,38.745l-45.052-75.01l-45.052,75.01
			l-78.453-38.745l2.653,87.458l-86.947,9.821l49.516,72.141L0,263.255l80.658,33.918l-27.187,83.169l86.192-15.073l22.094,84.664
			l64.36-59.279l64.36,59.279l22.094-84.664l86.192,15.073l-27.187-83.17L452.234,263.255z M376.745,361.263l-75.2-13.151
			l-19.276,73.867l-56.152-51.719l-56.152,51.719l-19.276-73.867l-75.2,13.151L99.208,288.7l-70.372-29.592l59.184-48.22
			l-43.202-62.941l75.859-8.567l-2.315-76.306l68.448,33.804l39.307-65.443l39.307,65.443l68.448-33.804l-2.315,76.306l75.859,8.567
			l-43.202,62.941l59.184,48.22L353.025,288.7L376.745,361.263z"/>
		<path d="M135.087,226.412c0,50.193,40.835,91.029,91.029,91.029h7.5V135.383h-7.5
			C175.923,135.383,135.087,176.219,135.087,226.412z M218.617,302.074c-38.416-3.779-68.529-36.271-68.529-75.662
			s30.114-71.883,68.529-75.662V302.074z"/>
	</g>
	<g>
	</g>
	<g>
	</g>
	<g>
	</g>
	<g>
	</g>
	<g>
	</g>
	<g>
	</g>
	<g>
	</g>
	<g>
	</g>
	<g>
	</g>
	<g>
	</g>
	<g>
	</g>
	<g>
	</g>
	<g>
	</g>
	<g>
	</g>
	<g>
	</g>
</g>
<g>
</g>
<g>
</g>
<g>
</g>
<g>
</g>
<g>
</g>
<g>
</g>
<g>
</g>
<g>
</g>
<g>
</g>
<g>
</g>
<g>
</g>
<g>
</g>
<g>
</g>
<g>
</g>
<g>
</g>
</svg>
