<?xml version="1.0" encoding="iso-8859-1"?>
<!-- Generator: Adobe Illustrator 19.1.0, SVG Export Plug-In . SVG Version: 6.00 Build 0)  -->
<svg version="1.1" id="Capa_1" xmlns="http://www.w3.org/2000/svg" xmlns:xlink="http://www.w3.org/1999/xlink" x="0px" y="0px"
	 viewBox="0 0 312.595 312.595" style="enable-background:new 0 0 312.595 312.595;" xml:space="preserve">
<g>
	<path d="M282.694,34.046h-77.646V0h-97.5v34.046H29.901v62.162h29.521v182.558c0,18.653,15.176,33.829,33.829,33.829h126.092
		c18.653,0,33.829-15.176,33.829-33.829V96.208h29.521V34.046H282.694z M122.547,15h67.5v19.046h-67.5V15z M238.172,278.766
		c0,10.382-8.446,18.829-18.829,18.829H93.251c-10.383,0-18.829-8.447-18.829-18.829V96.208h163.75V278.766z M267.694,81.208
		h-14.521H59.422H44.901V49.046h62.646h97.5h62.646v32.162H267.694z"/>
	<g>
	</g>
	<g>
	</g>
	<g>
	</g>
	<g>
	</g>
	<g>
	</g>
	<g>
	</g>
	<g>
	</g>
	<g>
	</g>
	<g>
	</g>
	<g>
	</g>
	<g>
	</g>
	<g>
	</g>
	<g>
	</g>
	<g>
	</g>
	<g>
	</g>
</g>
<g>
</g>
<g>
</g>
<g>
</g>
<g>
</g>
<g>
</g>
<g>
</g>
<g>
</g>
<g>
</g>
<g>
</g>
<g>
</g>
<g>
</g>
<g>
</g>
<g>
</g>
<g>
</g>
<g>
</g>
</svg>
