<svg height="480pt" viewBox="0 0 480 480" width="480pt" xmlns="http://www.w3.org/2000/svg"><path d="m240 0c-132.546875 0-240 107.453125-240 240s107.453125 240 240 240 240-107.453125 240-240c-.148438-132.484375-107.515625-239.851562-240-240zm0 464c-123.710938 0-224-100.289062-224-224s100.289062-224 224-224 224 100.289062 224 224c-.140625 123.652344-100.347656 223.859375-224 224zm0 0"/><path d="m240 32c-114.875 0-208 93.125-208 208s93.125 208 208 208 208-93.125 208-208c-.128906-114.820312-93.179688-207.871094-208-208zm0 400c-106.039062 0-192-85.960938-192-192s85.960938-192 192-192 192 85.960938 192 192c-.125 105.988281-86.011719 191.875-192 192zm0 0"/><path d="m366.695312 120.679688c-.042968-.667969-.171874-1.324219-.382812-1.960938-.082031-.269531-.175781-.539062-.289062-.796875-.378907-.894531-.921876-1.707031-1.597657-2.402344-.699219-.671875-1.511719-1.214843-2.402343-1.597656-.875-.355469-1.800782-.582031-2.742188-.664063-.289062-.035156-.578125-.050781-.867188-.050781-.871093.023438-1.738281.191407-2.558593.496094l-.152344.039063-288.457031 118.859374c-3.050782 1.257813-5.015625 4.261719-4.945313 7.5625.070313 3.300782 2.15625 6.21875 5.257813 7.347657l120.9375 44 44 120.9375c1.128906 3.101562 4.042968 5.191406 7.34375 5.261719h.160156c3.242188.003906 6.164062-1.953126 7.398438-4.949219l118.792968-288.515625v-.140625c.3125-.828125.484375-1.703125.503906-2.585938.015626-.277343.015626-.558593 0-.839843zm-41.839843 23.152343-132.167969 132.167969-100.253906-36.464844zm-84.390625 243.734375-36.464844-100.253906 132.167969-132.167969zm0 0"/></svg>