<svg id="Capa_1" enable-background="new 0 0 512.001 512.001" height="512" viewBox="0 0 512.001 512.001" width="512" xmlns="http://www.w3.org/2000/svg"><circle cx="430" cy="321.999" r="10"/><path d="m466.99 350.9c-3.14-4.544-9.366-5.683-13.911-2.545-4.545 3.139-5.685 9.367-2.546 13.912 17.162 24.848 29.2 52.488 35.732 81.648-24.226-26.23-64.374-48.537-115.351-62.674-13.271-50.699-33.589-90.149-57.762-114.315 27.295 6.755 53.175 18.376 76.581 34.542 4.545 3.138 10.773 1.999 13.911-2.545 3.139-4.544 1.999-10.773-2.546-13.911-39.908-27.565-86.424-42.963-135.098-44.819v-70.193h100v50c0 5.523 4.478 10 10 10h126c4.045 0 7.691-2.437 9.239-6.173s.691-8.038-2.168-10.898l-52.928-52.929 52.929-52.929c2.859-2.86 3.716-7.161 2.168-10.898s-5.195-6.173-9.24-6.173h-116v-50c0-5.523-4.478-10-10-10h-110v-20c0-5.523-4.478-10-10-10s-10 4.477-10 10v230.21c-136.79 5.22-246 117.588-246 255.79v6c0 5.523 4.478 10 10 10h492c5.522 0 10-4.477 10-10v-6c0-52.291-15.564-102.466-45.01-145.1zm23.966 141.1h-105.07c-.608-29.979-3.937-60.072-9.759-88.383 63.841 19.857 107.656 53.64 114.829 88.383zm-224.956-230.869c42.328 9.48 70.381 72.719 82.635 114.621-26.668-5.786-54.357-9.014-82.635-9.63zm-20 0v104.991c-28.278.615-55.968 3.844-82.635 9.63 12.217-41.776 40.266-105.132 82.635-114.621zm-88.348 136.453c28.311-6.928 57.96-10.765 88.348-11.457v105.873h-99.882c.68-32.228 4.622-64.557 11.534-94.416zm-31.538 94.416h-105.07c7.173-34.743 50.987-68.526 114.829-88.383-5.822 28.311-9.151 58.404-9.759 88.383zm139.886-105.873c30.388.692 60.036 4.529 88.348 11.457 6.913 29.859 10.854 62.189 11.534 94.417h-99.882zm168.929-233.198c-3.905 3.905-3.905 10.237 0 14.143l42.928 42.928h-91.857v-100h91.857zm-68.929-102.929v100h-100v-100zm-167.163 216.936c-24.169 24.166-44.483 63.613-57.751 114.304-50.961 14.133-91.101 36.431-115.329 62.65 19.482-86.859 87.256-155.701 173.08-176.954z"/></svg>