<?xml version="1.0" encoding="iso-8859-1"?>
<!-- Generator: Adobe Illustrator 19.1.0, SVG Export Plug-In . SVG Version: 6.00 Build 0)  -->
<svg version="1.1" id="Capa_1" xmlns="http://www.w3.org/2000/svg" xmlns:xlink="http://www.w3.org/1999/xlink" x="0px" y="0px"
	 viewBox="0 0 368.552 368.552" style="enable-background:new 0 0 368.552 368.552;" xml:space="preserve">
<g>
	<path d="M306.825,175.624c-0.59-66.992-55.262-121.311-122.389-121.311c-67.114,0-121.777,54.297-122.389,121.27
		C27.215,179.33,0,208.897,0,244.707c0,38.34,31.192,69.532,69.532,69.532h7.5V176.718c0-59.223,48.181-107.404,107.403-107.404
		c58.707,0,106.554,47.348,107.384,105.861h-0.299v139.064h7.5c38.34,0,69.532-31.192,69.532-69.532
		C368.553,209.007,341.503,179.517,306.825,175.624z M62.032,298.726C35.499,295.061,15,272.232,15,244.707
		s20.499-50.354,47.032-54.019V298.726z M306.521,298.726V190.688c26.533,3.665,47.032,26.493,47.032,54.019
		S333.054,295.061,306.521,298.726z"/>
	<g>
	</g>
	<g>
	</g>
	<g>
	</g>
	<g>
	</g>
	<g>
	</g>
	<g>
	</g>
	<g>
	</g>
	<g>
	</g>
	<g>
	</g>
	<g>
	</g>
	<g>
	</g>
	<g>
	</g>
	<g>
	</g>
	<g>
	</g>
	<g>
	</g>
</g>
<g>
</g>
<g>
</g>
<g>
</g>
<g>
</g>
<g>
</g>
<g>
</g>
<g>
</g>
<g>
</g>
<g>
</g>
<g>
</g>
<g>
</g>
<g>
</g>
<g>
</g>
<g>
</g>
<g>
</g>
</svg>
