<?xml version="1.0" encoding="iso-8859-1"?>
<!-- Generator: Adobe Illustrator 19.1.0, SVG Export Plug-In . SVG Version: 6.00 Build 0)  -->
<svg version="1.1" id="Capa_1" xmlns="http://www.w3.org/2000/svg" xmlns:xlink="http://www.w3.org/1999/xlink" x="0px" y="0px"
	 viewBox="0 0 313.863 313.863" style="enable-background:new 0 0 313.863 313.863;" xml:space="preserve">
<g>
	<path d="M290.394,46.42l-1.038-1.037c-15.134-15.135-35.256-23.47-56.659-23.47s-41.525,8.335-56.607,23.419l-19.341,18.974
		l-18.923-18.924c-15.134-15.134-35.256-23.469-56.659-23.469s-41.525,8.335-56.661,23.471L23.47,46.42
		C8.334,61.553,0,81.676,0,103.079c0,21.402,8.334,41.524,23.469,56.659l17.829,17.829l-0.024,0.023l114.358,114.36l134.762-132.212
		c15.134-15.135,23.469-35.257,23.469-56.659C313.863,81.676,305.528,61.553,290.394,46.42z M279.838,149.081L155.733,270.837
		l-93.14-93.141l0.024-0.023l-28.542-28.542C21.774,136.83,15,120.474,15,103.079c0-17.396,6.774-33.751,19.077-46.054l1.036-1.036
		C47.414,43.687,63.77,36.913,81.166,36.913s33.751,6.774,46.053,19.076l29.429,29.428l29.997-29.428
		c12.301-12.302,28.655-19.076,46.052-19.076s33.751,6.774,46.052,19.076l1.038,1.038c12.302,12.301,19.076,28.655,19.076,46.052
		C298.863,120.474,292.088,136.83,279.838,149.081z"/>
	<g>
	</g>
	<g>
	</g>
	<g>
	</g>
	<g>
	</g>
	<g>
	</g>
	<g>
	</g>
	<g>
	</g>
	<g>
	</g>
	<g>
	</g>
	<g>
	</g>
	<g>
	</g>
	<g>
	</g>
	<g>
	</g>
	<g>
	</g>
	<g>
	</g>
</g>
<g>
</g>
<g>
</g>
<g>
</g>
<g>
</g>
<g>
</g>
<g>
</g>
<g>
</g>
<g>
</g>
<g>
</g>
<g>
</g>
<g>
</g>
<g>
</g>
<g>
</g>
<g>
</g>
<g>
</g>
</svg>
