<?xml version="1.0" encoding="iso-8859-1"?>
<!-- Generator: Adobe Illustrator 19.1.0, SVG Export Plug-In . SVG Version: 6.00 Build 0)  -->
<svg version="1.1" id="Capa_1" xmlns="http://www.w3.org/2000/svg" xmlns:xlink="http://www.w3.org/1999/xlink" x="0px" y="0px"
	 viewBox="0 0 258.416 258.416" style="enable-background:new 0 0 258.416 258.416;" xml:space="preserve">
<g>
	<path d="M0,0v258.416h258.416V0H0z M243.416,48.684h-29.744V15h29.744V48.684z M198.672,121.708H50.647V15h148.024L198.672,121.708
		L198.672,121.708z M35.647,97.366H15V63.684h20.647V97.366z M35.647,112.366v33.684H15v-33.684
		C15,112.366,35.647,112.366,35.647,112.366z M35.647,161.05v33.683H15V161.05H35.647z M50.647,136.708h148.024v106.708H50.647
		V136.708z M213.672,161.05h29.744v33.683h-29.744V161.05z M213.672,146.05v-33.684h29.744v33.684H213.672z M213.672,97.366V63.684
		h29.744v33.683L213.672,97.366L213.672,97.366z M35.647,15v33.684H15V15H35.647z M15,209.732h20.647v33.684H15V209.732z
		 M213.672,243.416v-33.684h29.744v33.684L213.672,243.416L213.672,243.416z"/>
	<g>
	</g>
	<g>
	</g>
	<g>
	</g>
	<g>
	</g>
	<g>
	</g>
	<g>
	</g>
	<g>
	</g>
	<g>
	</g>
	<g>
	</g>
	<g>
	</g>
	<g>
	</g>
	<g>
	</g>
	<g>
	</g>
	<g>
	</g>
	<g>
	</g>
</g>
<g>
</g>
<g>
</g>
<g>
</g>
<g>
</g>
<g>
</g>
<g>
</g>
<g>
</g>
<g>
</g>
<g>
</g>
<g>
</g>
<g>
</g>
<g>
</g>
<g>
</g>
<g>
</g>
<g>
</g>
</svg>
