<?xml version="1.0" encoding="iso-8859-1"?>
<!-- Generator: Adobe Illustrator 19.1.0, SVG Export Plug-In . SVG Version: 6.00 Build 0)  -->
<svg version="1.1" id="Capa_1" xmlns="http://www.w3.org/2000/svg" xmlns:xlink="http://www.w3.org/1999/xlink" x="0px" y="0px"
	 viewBox="0 0 339.076 339.076" style="enable-background:new 0 0 339.076 339.076;" xml:space="preserve">
<g>
	<g>
		<path d="M247.871,0H91.204v51.776h156.667V0z M232.871,36.776H106.204V15h126.667V36.776z"/>
		<path d="M314.586,328.469L177.038,190.921v-86.635h-15v71.635l-72.006-72.006c22.293-18.621,50.226-28.797,79.506-28.797
			c68.466,0,124.167,55.701,124.167,124.167c0,26.215-8.069,51.277-23.335,72.476l12.172,8.766
			c17.116-23.768,26.163-51.86,26.163-81.242c0-76.737-62.43-139.167-139.167-139.167c-33.274,0-64.996,11.723-90.151,33.152
			L35.096,48.979L24.49,59.586l230.131,230.13c-23.092,21.808-53.012,33.736-85.082,33.736
			c-68.466,0-124.167-55.701-124.167-124.167c0-9.579,1.094-19.12,3.251-28.356c3.87-16.571,11.002-31.928,21.199-45.645
			l-12.038-8.949c-11.431,15.377-19.428,32.597-23.768,51.183c-2.418,10.353-3.644,21.041-3.644,31.767
			c0,76.737,62.43,139.167,139.167,139.167c35.544,0,69.962-13.811,95.685-38.133l38.757,38.757L314.586,328.469z"/>
	</g>
	<g>
	</g>
	<g>
	</g>
	<g>
	</g>
	<g>
	</g>
	<g>
	</g>
	<g>
	</g>
	<g>
	</g>
	<g>
	</g>
	<g>
	</g>
	<g>
	</g>
	<g>
	</g>
	<g>
	</g>
	<g>
	</g>
	<g>
	</g>
	<g>
	</g>
</g>
<g>
</g>
<g>
</g>
<g>
</g>
<g>
</g>
<g>
</g>
<g>
</g>
<g>
</g>
<g>
</g>
<g>
</g>
<g>
</g>
<g>
</g>
<g>
</g>
<g>
</g>
<g>
</g>
<g>
</g>
</svg>
