<?xml version="1.0" encoding="iso-8859-1"?>
<!-- Generator: Adobe Illustrator 19.1.0, SVG Export Plug-In . SVG Version: 6.00 Build 0)  -->
<svg version="1.1" id="Capa_1" xmlns="http://www.w3.org/2000/svg" xmlns:xlink="http://www.w3.org/1999/xlink" x="0px" y="0px"
	 viewBox="0 0 338.502 338.502" style="enable-background:new 0 0 338.502 338.502;" xml:space="preserve">
<g>
	<g>
		<path d="M67.156,0.001c-21.19,0-38.43,17.239-38.43,38.43c0,21.189,17.239,38.429,38.43,38.429
			c21.189,0,38.429-17.239,38.429-38.429C105.585,17.24,88.346,0.001,67.156,0.001z M67.156,61.859
			c-12.919,0-23.43-10.51-23.43-23.429s10.511-23.429,23.43-23.429s23.429,10.511,23.429,23.43S80.075,61.859,67.156,61.859z"/>
		<path d="M169.251,0.001c-21.19,0-38.43,17.239-38.43,38.43c0,21.189,17.239,38.429,38.43,38.429s38.43-17.239,38.43-38.429
			C207.681,17.24,190.441,0.001,169.251,0.001z M169.251,61.859c-12.919,0-23.43-10.51-23.43-23.429s10.511-23.429,23.43-23.429
			s23.43,10.511,23.43,23.43S182.17,61.859,169.251,61.859z"/>
		<path d="M271.346,76.859c21.19,0,38.43-17.239,38.43-38.429S292.537,0,271.346,0c-21.189,0-38.429,17.239-38.429,38.43
			C232.917,59.62,250.156,76.859,271.346,76.859z M271.346,15.001c12.919,0,23.43,10.511,23.43,23.43s-10.511,23.429-23.43,23.429
			s-23.429-10.51-23.429-23.429S258.427,15.001,271.346,15.001z"/>
		<path d="M67.156,87.215c-21.19,0-38.43,17.239-38.43,38.43c0,21.189,17.239,38.429,38.43,38.429
			c21.189,0,38.429-17.239,38.429-38.429C105.585,104.454,88.346,87.215,67.156,87.215z M67.156,149.073
			c-12.919,0-23.43-10.51-23.43-23.429s10.511-23.43,23.43-23.43s23.429,10.511,23.429,23.43
			C90.585,138.563,80.075,149.073,67.156,149.073z"/>
		<path d="M169.251,87.215c-21.19,0-38.43,17.239-38.43,38.43c0,21.189,17.239,38.429,38.43,38.429s38.43-17.239,38.43-38.429
			C207.681,104.454,190.441,87.215,169.251,87.215z M169.251,149.073c-12.919,0-23.43-10.51-23.43-23.429s10.511-23.43,23.43-23.43
			s23.43,10.511,23.43,23.43C192.681,138.563,182.17,149.073,169.251,149.073z"/>
		<path d="M271.346,87.215c-21.189,0-38.429,17.239-38.429,38.43c0,21.189,17.239,38.429,38.429,38.429s38.43-17.239,38.43-38.429
			C309.775,104.454,292.536,87.215,271.346,87.215z M271.346,149.073c-12.919,0-23.429-10.51-23.429-23.429
			s10.51-23.43,23.429-23.43s23.43,10.511,23.43,23.43C294.776,138.563,284.265,149.073,271.346,149.073z"/>
		<path d="M67.156,174.429c-21.19,0-38.43,17.239-38.43,38.429s17.239,38.43,38.43,38.43c21.189,0,38.429-17.239,38.429-38.43
			C105.585,191.668,88.346,174.429,67.156,174.429z M67.156,236.287c-12.919,0-23.43-10.511-23.43-23.43s10.511-23.429,23.43-23.429
			s23.429,10.51,23.429,23.429S80.075,236.287,67.156,236.287z"/>
		<path d="M169.251,174.429c-21.19,0-38.43,17.239-38.43,38.429s17.239,38.43,38.43,38.43s38.43-17.239,38.43-38.43
			C207.681,191.668,190.441,174.429,169.251,174.429z M169.251,236.287c-12.919,0-23.43-10.511-23.43-23.43
			s10.511-23.429,23.43-23.429s23.43,10.51,23.43,23.429S182.17,236.287,169.251,236.287z"/>
		<path d="M271.346,174.429c-21.189,0-38.429,17.239-38.429,38.429s17.239,38.43,38.429,38.43s38.43-17.239,38.43-38.43
			C309.775,191.668,292.536,174.429,271.346,174.429z M271.346,236.287c-12.919,0-23.429-10.511-23.429-23.43
			s10.51-23.429,23.429-23.429s23.43,10.51,23.43,23.429S284.265,236.287,271.346,236.287z"/>
		<path d="M169.251,261.643c-21.19,0-38.43,17.239-38.43,38.429c0,21.19,17.239,38.43,38.43,38.43s38.43-17.239,38.43-38.43
			C207.681,278.882,190.441,261.643,169.251,261.643z M169.251,323.501c-12.919,0-23.43-10.511-23.43-23.43
			s10.511-23.429,23.43-23.429s23.43,10.51,23.43,23.429S182.17,323.501,169.251,323.501z"/>
	</g>
	<g>
	</g>
	<g>
	</g>
	<g>
	</g>
	<g>
	</g>
	<g>
	</g>
	<g>
	</g>
	<g>
	</g>
	<g>
	</g>
	<g>
	</g>
	<g>
	</g>
	<g>
	</g>
	<g>
	</g>
	<g>
	</g>
	<g>
	</g>
	<g>
	</g>
</g>
<g>
</g>
<g>
</g>
<g>
</g>
<g>
</g>
<g>
</g>
<g>
</g>
<g>
</g>
<g>
</g>
<g>
</g>
<g>
</g>
<g>
</g>
<g>
</g>
<g>
</g>
<g>
</g>
<g>
</g>
</svg>
