<?xml version="1.0" encoding="iso-8859-1"?>
<!-- Generator: Adobe Illustrator 19.1.0, SVG Export Plug-In . SVG Version: 6.00 Build 0)  -->
<svg version="1.1" id="Capa_1" xmlns="http://www.w3.org/2000/svg" xmlns:xlink="http://www.w3.org/1999/xlink" x="0px" y="0px"
	 viewBox="0 0 368.554 368.554" style="enable-background:new 0 0 368.554 368.554;" xml:space="preserve">
<g>
	<g>
		<path d="M252.402,82.166V42.638h-136.25v39.527H0v243.75h368.554V82.166H252.402z M353.554,310.916H15V97.166h116.152V57.638
			h106.25v39.527h116.152L353.554,310.916L353.554,310.916z"/>
		<path d="M96.525,204.041c0,48.386,39.365,87.751,87.751,87.751s87.751-39.365,87.751-87.751s-39.365-87.751-87.751-87.751
			S96.525,155.654,96.525,204.041z M257.028,204.041c0,40.115-32.636,72.751-72.751,72.751s-72.751-32.636-72.751-72.751
			s32.636-72.751,72.751-72.751S257.028,163.925,257.028,204.041z"/>
	</g>
	<g>
	</g>
	<g>
	</g>
	<g>
	</g>
	<g>
	</g>
	<g>
	</g>
	<g>
	</g>
	<g>
	</g>
	<g>
	</g>
	<g>
	</g>
	<g>
	</g>
	<g>
	</g>
	<g>
	</g>
	<g>
	</g>
	<g>
	</g>
	<g>
	</g>
</g>
<g>
</g>
<g>
</g>
<g>
</g>
<g>
</g>
<g>
</g>
<g>
</g>
<g>
</g>
<g>
</g>
<g>
</g>
<g>
</g>
<g>
</g>
<g>
</g>
<g>
</g>
<g>
</g>
<g>
</g>
</svg>
