<?xml version="1.0" encoding="iso-8859-1"?>
<!-- Generator: Adobe Illustrator 19.1.0, SVG Export Plug-In . SVG Version: 6.00 Build 0)  -->
<svg version="1.1" id="Capa_1" xmlns="http://www.w3.org/2000/svg" xmlns:xlink="http://www.w3.org/1999/xlink" x="0px" y="0px"
	 viewBox="0 0 368.553 368.553" style="enable-background:new 0 0 368.553 368.553;" xml:space="preserve">
<g>
	<g>
		<path d="M0,43.964v254.375h368.553V43.964H0z M353.553,283.339H15V58.964h338.553V283.339z"/>
		<rect x="82.714" y="309.589" width="203.125" height="15"/>
		<path d="M142.684,245.344c13.987,0,25.367-11.38,25.367-25.367c0-0.214-0.011-0.424-0.016-0.637h0.074v-65.318l83.128-16.612
			V95.348l-98.128,19.214v82.298c-3.183-1.441-6.71-2.25-10.425-2.25c-13.987,0-25.367,11.38-25.367,25.367
			S128.696,245.344,142.684,245.344z M168.108,126.909l68.128-13.339v11.54l-68.128,13.614V126.909z M142.684,209.609
			c5.717,0,10.367,4.65,10.367,10.367s-4.65,10.367-10.367,10.367s-10.367-4.65-10.367-10.367S136.967,209.609,142.684,209.609z"/>
	</g>
	<g>
	</g>
	<g>
	</g>
	<g>
	</g>
	<g>
	</g>
	<g>
	</g>
	<g>
	</g>
	<g>
	</g>
	<g>
	</g>
	<g>
	</g>
	<g>
	</g>
	<g>
	</g>
	<g>
	</g>
	<g>
	</g>
	<g>
	</g>
	<g>
	</g>
</g>
<g>
</g>
<g>
</g>
<g>
</g>
<g>
</g>
<g>
</g>
<g>
</g>
<g>
</g>
<g>
</g>
<g>
</g>
<g>
</g>
<g>
</g>
<g>
</g>
<g>
</g>
<g>
</g>
<g>
</g>
</svg>
