<?xml version="1.0" encoding="iso-8859-1"?>
<!-- Generator: Adobe Illustrator 19.1.0, SVG Export Plug-In . SVG Version: 6.00 Build 0)  -->
<svg version="1.1" id="Capa_1" xmlns="http://www.w3.org/2000/svg" xmlns:xlink="http://www.w3.org/1999/xlink" x="0px" y="0px"
	 viewBox="0 0 318.532 318.532" style="enable-background:new 0 0 318.532 318.532;" xml:space="preserve">
<g>
	<g>
		<path d="M159.266,0C71.446,0,0,71.446,0,159.266s71.446,159.266,159.266,159.266s159.266-71.446,159.266-159.266
			S247.085,0,159.266,0z M159.266,303.531C79.718,303.531,15,238.813,15,159.266S79.718,15,159.266,15
			s144.266,64.718,144.266,144.266S238.813,303.531,159.266,303.531z"/>
		<path d="M180.215,57.581c-26.303,0-47.702,21.013-47.702,46.841v130.922l-29.095-29.095l-10.607,10.607l47.202,47.201
			l47.202-47.201l-10.607-10.607l-29.095,29.095V104.422c0-17.557,14.67-31.841,32.702-31.841s32.702,14.284,32.702,31.841
			s-14.67,31.841-32.702,31.841h-12.219v15h12.219c26.303,0,47.702-21.013,47.702-46.841S206.518,57.581,180.215,57.581z"/>
	</g>
	<g>
	</g>
	<g>
	</g>
	<g>
	</g>
	<g>
	</g>
	<g>
	</g>
	<g>
	</g>
	<g>
	</g>
	<g>
	</g>
	<g>
	</g>
	<g>
	</g>
	<g>
	</g>
	<g>
	</g>
	<g>
	</g>
	<g>
	</g>
	<g>
	</g>
</g>
<g>
</g>
<g>
</g>
<g>
</g>
<g>
</g>
<g>
</g>
<g>
</g>
<g>
</g>
<g>
</g>
<g>
</g>
<g>
</g>
<g>
</g>
<g>
</g>
<g>
</g>
<g>
</g>
<g>
</g>
</svg>
