<?xml version="1.0" encoding="iso-8859-1"?>
<!-- Generator: Adobe Illustrator 19.1.0, SVG Export Plug-In . SVG Version: 6.00 Build 0)  -->
<svg version="1.1" id="Capa_1" xmlns="http://www.w3.org/2000/svg" xmlns:xlink="http://www.w3.org/1999/xlink" x="0px" y="0px"
	 viewBox="0 0 368.6 368.6" style="enable-background:new 0 0 368.6 368.6;" xml:space="preserve">
<g>
	<path d="M368.6,184.3c0,101.6-82.7,184.3-184.3,184.3S0,285.9,0,184.3c0-48.8,18.9-94.7,53.1-129.4l10.7,10.5
		C32.3,97.3,15,139.5,15,184.3c0,93.4,75.9,169.3,169.3,169.3c93.3,0,169.3-75.9,169.3-169.3c0-90.8-71.9-165.2-161.8-169.1v22.4
		h-15V0h7.5C285.9,0,368.6,82.7,368.6,184.3z M189.6,179l-79-79l-10.7,10.6l79,79L189.6,179z"/>
</g>
<g>
</g>
<g>
</g>
<g>
</g>
<g>
</g>
<g>
</g>
<g>
</g>
<g>
</g>
<g>
</g>
<g>
</g>
<g>
</g>
<g>
</g>
<g>
</g>
<g>
</g>
<g>
</g>
<g>
</g>
</svg>
