<?xml version="1.0" encoding="iso-8859-1"?>
<!-- Generator: Adobe Illustrator 19.1.0, SVG Export Plug-In . SVG Version: 6.00 Build 0)  -->
<svg version="1.1" id="Capa_1" xmlns="http://www.w3.org/2000/svg" xmlns:xlink="http://www.w3.org/1999/xlink" x="0px" y="0px"
	 viewBox="0 0 279.508 279.508" style="enable-background:new 0 0 279.508 279.508;" xml:space="preserve">
<g>
	<g>
		<path d="M9.685,140.567l-4.353,14.355c27.923,8.466,53.661,23.903,74.43,44.644c20.768,20.738,36.241,46.451,44.747,74.36
			l14.349-4.373c-9.222-30.257-25.992-58.129-48.497-80.602C67.855,166.478,39.957,149.746,9.685,140.567z"/>
		<path d="M10.302,183.938L4.72,197.861c33.99,13.623,61.668,40.786,75.938,74.524l13.815-5.844
			C78.656,229.147,47.977,199.039,10.302,183.938z"/>
		<path d="M11.427,231.068l-7.83,12.795c13.002,7.957,24.081,19.034,32.04,32.034l12.793-7.832
			C39.238,253.052,26.443,240.259,11.427,231.068z"/>
		<polygon points="0,0 0,110.323 15,110.323 15,15 264.508,15 264.508,264.508 168.239,264.508 168.239,279.508 279.508,279.508 
			279.508,0 		"/>
	</g>
	<g>
	</g>
	<g>
	</g>
	<g>
	</g>
	<g>
	</g>
	<g>
	</g>
	<g>
	</g>
	<g>
	</g>
	<g>
	</g>
	<g>
	</g>
	<g>
	</g>
	<g>
	</g>
	<g>
	</g>
	<g>
	</g>
	<g>
	</g>
	<g>
	</g>
</g>
<g>
</g>
<g>
</g>
<g>
</g>
<g>
</g>
<g>
</g>
<g>
</g>
<g>
</g>
<g>
</g>
<g>
</g>
<g>
</g>
<g>
</g>
<g>
</g>
<g>
</g>
<g>
</g>
<g>
</g>
</svg>
