<?xml version="1.0" standalone="no"?>
<!DOCTYPE svg PUBLIC "-//W3C//DTD SVG 20010904//EN"
 "http://www.w3.org/TR/2001/REC-SVG-20010904/DTD/svg10.dtd">
<svg version="1.0" xmlns="http://www.w3.org/2000/svg"
 width="512.000000pt" height="512.000000pt" viewBox="0 0 512.000000 512.000000"
 preserveAspectRatio="xMidYMid meet">
<metadata>
Created by potrace 1.11, written by Peter Selinger 2001-2013
</metadata>
<g transform="translate(0.000000,512.000000) scale(0.100000,-0.100000)"
fill="#000000" stroke="none">
<path d="M430 5101 c-210 -58 -366 -217 -415 -425 -21 -88 -21 -4137 0 -4233
40 -183 188 -347 376 -415 l64 -23 2080 -2 c2299 -3 2137 -7 2274 62 130 65
245 201 288 342 17 55 18 165 18 2143 0 1147 -3 2099 -7 2115 -12 54 -28 99
-48 135 -10 19 -24 45 -29 58 -19 42 -145 156 -208 190 -138 73 75 66 -2243
69 -1972 2 -2089 1 -2150 -16z"/>
</g>
</svg>
