<?xml version="1.0" standalone="no"?>
<!DOCTYPE svg PUBLIC "-//W3C//DTD SVG 20010904//EN"
 "http://www.w3.org/TR/2001/REC-SVG-20010904/DTD/svg10.dtd">
<svg version="1.0" xmlns="http://www.w3.org/2000/svg"
 width="700.000000pt" height="700.000000pt" viewBox="0 0 700.000000 700.000000"
 preserveAspectRatio="xMidYMid meet">
<metadata>
Created by potrace 1.11, written by Peter Selinger 2001-2013
</metadata>
<g transform="translate(0.000000,700.000000) scale(0.100000,-0.100000)"
fill="#000000" stroke="none">
<path d="M1440 6985 c-289 -60 -509 -265 -592 -551 l-23 -79 0 -2855 0 -2855
23 -80 c74 -259 280 -464 537 -537 113 -31 288 -31 400 1 135 38 227 93 336
201 81 81 102 109 142 190 86 176 81 95 84 1233 l4 1007 447 0 447 0 785
-1182 c851 -1284 848 -1279 997 -1367 431 -255 974 -42 1125 439 19 64 23 96
23 215 0 151 -17 230 -72 338 -13 27 -299 463 -635 969 -336 506 -611 926
-612 933 0 7 44 46 99 88 759 568 1059 1549 749 2448 -104 303 -283 589 -514
819 -333 332 -731 535 -1210 616 -96 16 -207 18 -1290 20 -963 2 -1197 0
-1250 -11z m292 -427 c72 -33 137 -98 174 -174 29 -59 29 -59 32 -281 l4 -223
-200 0 c-228 0 -288 12 -366 72 -231 177 -177 522 97 620 74 26 183 20 259
-14z m2228 8 c225 -43 479 -145 660 -263 547 -360 859 -1011 789 -1651 -46
-423 -228 -795 -535 -1093 -88 -85 -232 -199 -251 -199 -5 0 -85 114 -178 253
-92 138 -181 268 -196 288 l-28 36 80 63 c231 182 369 432 401 728 21 191 -14
378 -107 567 -135 277 -373 469 -690 557 -79 22 -90 23 -817 26 l-738 3 0 198
c0 227 -15 337 -60 443 l-28 69 801 -3 c725 -3 811 -5 897 -22z m-2554 -1072
c44 -12 118 -18 297 -21 l237 -5 -2 -642 -3 -641 -250 -6 c-259 -6 -294 -11
-399 -57 -27 -12 -50 -22 -52 -22 -2 0 -4 328 -4 729 l0 729 58 -24 c32 -13
85 -31 118 -40z m2414 -45 c114 -31 205 -84 285 -164 122 -123 182 -254 192
-420 17 -303 -181 -576 -482 -662 -54 -15 -135 -18 -762 -21 l-703 -3 0 646 0
645 698 0 c674 0 700 -1 772 -21z m-1880 -2025 l0 -355 -227 3 c-214 3 -231 4
-275 26 -74 37 -134 96 -170 170 -30 61 -33 75 -33 157 1 78 4 97 28 145 51
100 139 171 241 196 31 7 127 13 244 13 l192 1 0 -356z m1040 351 c0 -3 -9
-24 -21 -46 -83 -163 -82 -455 1 -618 l20 -41 -315 0 -315 0 0 355 0 355 315
0 c173 0 315 -2 315 -5z m729 -5 c80 -14 145 -47 197 -102 23 -23 110 -145
193 -271 174 -261 173 -227 9 -271 -146 -39 -288 -56 -475 -56 l-170 0 -61 93
c-86 130 -96 156 -96 257 -1 71 4 94 26 142 50 108 147 185 258 207 25 5 47 9
50 10 3 0 34 -4 69 -9z m1388 -1877 c339 -511 628 -950 642 -978 37 -70 42
-196 11 -277 -28 -74 -93 -146 -172 -189 -58 -31 -70 -34 -153 -34 -78 0 -98
4 -151 28 -34 16 -80 47 -102 70 -22 23 -354 515 -737 1092 l-697 1050 117 12
c210 23 366 61 623 152 2 1 280 -416 619 -926z m-3798 822 c111 -46 184 -55
422 -55 l219 0 -2 -992 -3 -993 -29 -59 c-37 -76 -96 -135 -172 -172 -52 -25
-70 -29 -149 -29 -77 0 -98 4 -147 27 -73 34 -142 103 -176 176 l-27 57 -3
1033 c-1 567 -1 1032 1 1032 2 0 31 -11 66 -25z"/>
</g>
</svg>
